# xmcd
#
# Track frame offsets:
# 182
# 27102
# 59992
# 85915
# 106257
# 131850
# 164625
#
# Disc length: 2666 seconds
#
#
# Revision: 1
# Processed by: cddbd v1.5.2PL0 Copyright (c) Steve Scherf et al.
# Submitted via: FreeRIP 2.951 
#
DISCID=620a6807
DTITLE=Various Artist - Seashore Solitude
DYEAR=1993
DGENRE=New Age
TTITLE0=George Skaroulis - Solitude at Sunrise
TTITLE1=Jennifer Cleveland - Ocean Lullaby
TTITLE2=Barbara Taylor - Sea of Tranquility
TTITLE3=George Skaroulis - Healing Waters
TTITLE4=Michael Thomas - Song of the Sea
TTITLE5=Rob Albertson - Breakers in the Mist
TTITLE6=Michael Thomas - Mystic Harbour
EXTD=YEAR: 1993
EXTT0=
EXTT1=
EXTT2=
EXTT3=
EXTT4=
EXTT5=
EXTT6=
PLAYORDER=
